<svg width="32" height="32" viewBox="0 0 32 32" fill="none" xmlns="http://www.w3.org/2000/svg">
<mask id="mask0_2213_2945" style="mask-type:alpha" maskUnits="userSpaceOnUse" x="0" y="0" width="32" height="32">
<rect y="32" width="32" height="32" transform="rotate(-90 0 32)" fill="#D9D9D9"/>
</mask>
<g mask="url(#mask0_2213_2945)">
<path d="M17.3335 10.4327V25.3327C17.3335 25.7105 17.2057 26.0271 16.9501 26.2827C16.6946 26.5382 16.3779 26.666 16.0001 26.666C15.6224 26.666 15.3057 26.5382 15.0501 26.2827C14.7946 26.0271 14.6668 25.7105 14.6668 25.3327L14.6668 10.4327L8.13348 16.966C7.86681 17.2327 7.5557 17.3605 7.20015 17.3493C6.84459 17.3382 6.53348 17.1993 6.26681 16.9327C6.02237 16.666 5.89459 16.3549 5.88348 15.9993C5.87237 15.6438 6.00015 15.3327 6.26681 15.066L15.0668 6.26601C15.2001 6.13268 15.3446 6.03824 15.5001 5.98268C15.6557 5.92713 15.8224 5.89935 16.0001 5.89935C16.1779 5.89935 16.3446 5.92713 16.5001 5.98268C16.6557 6.03824 16.8001 6.13268 16.9335 6.26601L25.7335 15.066C25.9779 15.3105 26.1001 15.616 26.1001 15.9827C26.1001 16.3493 25.9779 16.666 25.7335 16.9327C25.4668 17.1993 25.1501 17.3327 24.7835 17.3327C24.4168 17.3327 24.1001 17.1993 23.8335 16.9327L17.3335 10.4327Z" fill="white"/>
</g>
</svg>
