<svg width="54" height="57" viewBox="0 0 54 57" fill="none" xmlns="http://www.w3.org/2000/svg">
<mask id="mask0_4169_12154" style="mask-type:alpha" maskUnits="userSpaceOnUse" x="0" y="0" width="57" height="57">
<rect y="28.2843" width="40" height="40" transform="rotate(-45 0 28.2843)" fill="#D9D9D9"/>
</mask>
<g mask="url(#mask0_4169_12154)">
<path d="M34.3831 24.5423L21.2132 37.7122C20.8793 38.0461 20.4865 38.213 20.0347 38.213C19.5829 38.213 19.1901 38.0461 18.8562 37.7122C18.5223 37.3783 18.3553 36.9854 18.3553 36.5337C18.3553 36.0819 18.5223 35.6891 18.8562 35.3551L32.026 22.1853L20.4766 22.1853C20.0052 22.1853 19.6173 22.0232 19.3129 21.6991C19.0084 21.3751 18.8562 20.9773 18.8562 20.5059C18.8758 20.0541 19.0379 19.6662 19.3423 19.3421C19.6468 19.018 20.0347 18.856 20.5061 18.856L36.0624 18.856C36.2981 18.856 36.5093 18.9002 36.6959 18.9886C36.8825 19.077 37.0544 19.1997 37.2115 19.3569C37.3686 19.514 37.4914 19.6859 37.5798 19.8725C37.6682 20.059 37.7124 20.2702 37.7124 20.5059L37.7124 36.0623C37.7124 36.4944 37.5503 36.8725 37.2262 37.1966C36.9021 37.5207 36.5142 37.6925 36.0624 37.7122C35.591 37.7122 35.1933 37.5501 34.8692 37.226C34.5451 36.9019 34.3831 36.5042 34.3831 36.0328L34.3831 24.5423Z" fill="#63CA9F"/>
</g>
</svg>
