<svg width="80" height="80" viewBox="0 0 80 80" fill="none" xmlns="http://www.w3.org/2000/svg">
<circle cx="40" cy="40" r="40" fill="white" fill-opacity="0.3"/>
<circle cx="40" cy="40" r="28" fill="white"/>
<mask id="mask0_4179_66" style="mask-type:alpha" maskUnits="userSpaceOnUse" x="24" y="24" width="32" height="32">
<rect x="24" y="24" width="32" height="32" fill="#D9D9D9"/>
</mask>
<g mask="url(#mask0_4179_66)">
<path d="M30.4324 40.0332L35.5991 45.1999C35.8435 45.4443 35.9658 45.7554 35.9658 46.1332C35.9658 46.511 35.8435 46.8221 35.5991 47.0665C35.3546 47.311 35.0435 47.4332 34.6658 47.4332C34.288 47.4332 33.9769 47.311 33.7324 47.0665L27.5991 40.9332C27.4658 40.7999 27.3713 40.6554 27.3158 40.4999C27.2602 40.3443 27.2324 40.1776 27.2324 39.9999C27.2324 39.8221 27.2602 39.6554 27.3158 39.4999C27.3713 39.3443 27.4658 39.1999 27.5991 39.0665L33.7324 32.9332C33.9991 32.6665 34.3158 32.5332 34.6824 32.5332C35.0491 32.5332 35.3658 32.6665 35.6324 32.9332C35.8991 33.1999 36.0324 33.5165 36.0324 33.8832C36.0324 34.2499 35.8991 34.5665 35.6324 34.8332L30.4324 40.0332ZM49.5658 39.9665L44.3991 34.7999C44.1546 34.5554 44.0324 34.2443 44.0324 33.8665C44.0324 33.4888 44.1546 33.1776 44.3991 32.9332C44.6435 32.6888 44.9546 32.5665 45.3324 32.5665C45.7102 32.5665 46.0213 32.6888 46.2658 32.9332L52.3991 39.0665C52.5324 39.1999 52.6269 39.3443 52.6824 39.4999C52.738 39.6554 52.7658 39.8221 52.7658 39.9999C52.7658 40.1776 52.738 40.3443 52.6824 40.4999C52.6269 40.6554 52.5324 40.7999 52.3991 40.9332L46.2658 47.0665C45.9991 47.3332 45.688 47.461 45.3324 47.4499C44.9769 47.4388 44.6658 47.2999 44.3991 47.0332C44.1324 46.7665 43.9991 46.4499 43.9991 46.0832C43.9991 45.7165 44.1324 45.3999 44.3991 45.1332L49.5658 39.9665Z" fill="#2E2E2E"/>
</g>
</svg>
