<svg width="40" height="40" viewBox="0 0 40 40" fill="none" xmlns="http://www.w3.org/2000/svg">
<mask id="mask0_4179_2183" style="mask-type:alpha" maskUnits="userSpaceOnUse" x="0" y="0" width="40" height="40">
<rect width="40" height="40" fill="#D9D9D9"/>
</mask>
<g mask="url(#mask0_4179_2183)">
<path d="M16.9914 31.6924L27.0822 19.5941H20.0097L21.3593 8.93489L12.2747 22.0724H18.3655L16.9914 31.6924ZM15.9618 24.1666H10.5022C10.0347 24.1666 9.68885 23.9571 9.46469 23.5382C9.24052 23.1196 9.2701 22.7125 9.55344 22.317L21.2684 5.38031C21.4629 5.11475 21.7079 4.93281 22.0034 4.83448C22.299 4.73614 22.5991 4.74864 22.9039 4.87197C23.2089 4.98809 23.4426 5.186 23.6051 5.46572C23.7679 5.74572 23.8269 6.04058 23.7822 6.35031L22.388 17.4999H29.0289C29.5427 17.4999 29.9019 17.7246 30.1064 18.1741C30.3111 18.6235 30.2522 19.0459 29.9297 19.4411L17.0097 34.9345C16.8014 35.1778 16.5468 35.3364 16.2459 35.4103C15.9454 35.4842 15.6594 35.4543 15.388 35.3207C15.1094 35.1943 14.8937 34.9999 14.7409 34.7374C14.5882 34.4746 14.5307 34.1839 14.5684 33.8653L15.9618 24.1666Z" fill="#63CA9F"/>
</g>
</svg>
