<svg width="40" height="40" viewBox="0 0 40 40" fill="none" xmlns="http://www.w3.org/2000/svg">
<mask id="mask0_4179_2207" style="mask-type:alpha" maskUnits="userSpaceOnUse" x="0" y="0" width="40" height="40">
<rect width="40" height="40" fill="#D9D9D9"/>
</mask>
<g mask="url(#mask0_4179_2207)">
<path d="M5.83325 31.5597V8.44058C5.83325 7.72919 6.08992 7.11683 6.60325 6.6035C7.11659 6.09016 7.72895 5.8335 8.44034 5.8335H31.5595C32.2709 5.8335 32.8833 6.09016 33.3966 6.6035C33.9099 7.11683 34.1666 7.72919 34.1666 8.44058V31.5597C34.1666 32.2711 33.9099 32.8835 33.3966 33.3968C32.8833 33.9102 32.2709 34.1668 31.5595 34.1668H8.44034C7.72895 34.1668 7.11659 33.9102 6.60325 33.3968C6.08992 32.8835 5.83325 32.2711 5.83325 31.5597ZM21.047 21.0472V32.0727H32.0724V21.0472H21.047ZM21.047 18.9531H32.0724V7.92766H21.047V18.9531ZM18.9528 18.9531V7.92766H7.92742V18.9531H18.9528ZM18.9528 21.0472H7.92742V32.0727H18.9528V21.0472Z" fill="white"/>
</g>
</svg>
