<svg width="40" height="40" viewBox="0 0 40 40" fill="none" xmlns="http://www.w3.org/2000/svg">
<mask id="mask0_4179_1776" style="mask-type:alpha" maskUnits="userSpaceOnUse" x="0" y="0" width="40" height="40">
<rect width="40" height="40" fill="#D9D9D9"/>
</mask>
<g mask="url(#mask0_4179_1776)">
<path d="M20 35.6184C19.8439 35.6184 19.6935 35.6045 19.5488 35.5767C19.4038 35.5489 19.2642 35.5073 19.13 35.4517C15.5556 34.1789 12.7236 31.9495 10.6342 28.7634C8.54472 25.577 7.5 22.1073 7.5 18.3542V10.7117C7.5 10.1562 7.65736 9.65602 7.97208 9.2113C8.28708 8.76686 8.69417 8.44463 9.19333 8.24463L19.0867 4.56213C19.4022 4.44519 19.7067 4.38672 20 4.38672C20.2933 4.38672 20.5978 4.44519 20.9133 4.56213L30.8067 8.24463C31.3058 8.44463 31.7129 8.76686 32.0279 9.2113C32.3426 9.65602 32.5 10.1562 32.5 10.7117V18.3542C32.5 22.1073 31.4553 25.577 29.3658 28.7634C27.2764 31.9495 24.4444 34.1789 20.87 35.4517C20.7358 35.5073 20.5963 35.5489 20.4513 35.5767C20.3065 35.6045 20.1561 35.6184 20 35.6184ZM20 33.5896C23.0356 32.6091 25.5288 30.6996 27.4796 27.8613C29.4304 25.023 30.4058 21.8556 30.4058 18.3592V10.6955C30.4058 10.5888 30.3765 10.4927 30.3179 10.4071C30.259 10.3216 30.1763 10.2574 30.0696 10.2146L20.1763 6.50422C20.1229 6.48283 20.0642 6.47214 20 6.47214C19.9358 6.47214 19.8771 6.48283 19.8237 6.50422L9.93042 10.2146C9.82375 10.2574 9.74097 10.3216 9.68208 10.4071C9.62347 10.4927 9.59417 10.5888 9.59417 10.6955V18.3592C9.59417 21.8556 10.5696 25.023 12.5204 27.8613C14.4712 30.6996 16.9644 32.6091 20 33.5896Z" fill="white"/>
</g>
</svg>
