<svg width="40" height="40" viewBox="0 0 40 40" fill="none" xmlns="http://www.w3.org/2000/svg">
<mask id="mask0_4179_2166" style="mask-type:alpha" maskUnits="userSpaceOnUse" x="0" y="0" width="40" height="40">
<rect width="40" height="40" fill="#D9D9D9"/>
</mask>
<g mask="url(#mask0_4179_2166)">
<path d="M19.9944 34.3802C19.6961 34.3802 19.4479 34.2798 19.2499 34.079C19.0518 33.8784 18.9528 33.6298 18.9528 33.3331V21.3556H18.5469C16.8761 21.3556 15.2926 21.0394 13.7965 20.4069C12.3004 19.7744 10.9701 18.8705 9.8057 17.6952C8.64875 16.5199 7.76959 15.1663 7.1682 13.6344C6.56681 12.1024 6.26611 10.5009 6.26611 8.8298V7.60147C6.26611 7.23674 6.38945 6.93091 6.63611 6.68397C6.88278 6.4373 7.18847 6.31396 7.5532 6.31396H8.73695C10.3631 6.31396 11.9278 6.63285 13.4311 7.27063C14.9342 7.90841 16.2733 8.81494 17.4486 9.99022C18.3503 10.9033 19.0863 11.9316 19.6565 13.0752C20.2265 14.2188 20.6208 15.4273 20.8394 16.7006C21.0594 16.3051 21.3101 15.9266 21.5915 15.5652C21.8732 15.2035 22.1792 14.8516 22.5094 14.5094C23.6811 13.336 25.0211 12.4301 26.5294 11.7915C28.0378 11.1526 29.6208 10.8331 31.2786 10.8331H32.4624C32.8271 10.8331 33.1328 10.9565 33.3794 11.2031C33.6264 11.4501 33.7499 11.7559 33.7499 12.1206V13.349C33.7499 15.0154 33.4343 16.6166 32.8032 18.1527C32.1724 19.6888 31.2774 21.0427 30.1182 22.2144C28.9432 23.3897 27.6074 24.2866 26.1107 24.9052C24.6143 25.5238 23.0467 25.8331 21.4078 25.8331H21.0469V33.3331C21.0469 33.6298 20.946 33.8784 20.744 34.079C20.5424 34.2798 20.2925 34.3802 19.9944 34.3802ZM18.9861 19.2198C18.9861 17.7098 18.7206 16.2905 18.1894 14.9619C17.6586 13.6333 16.9117 12.4806 15.9486 11.504C14.9928 10.5204 13.859 9.75841 12.5474 9.21813C11.2357 8.67813 9.83986 8.40813 8.35986 8.40813C8.35986 9.94785 8.61278 11.3862 9.11861 12.7231C9.62417 14.0601 10.3585 15.2179 11.3215 16.1965C12.3713 17.2948 13.5365 18.0733 14.8174 18.5319C16.0979 18.9905 17.4875 19.2198 18.9861 19.2198ZM21.0469 23.739C22.5383 23.739 23.9399 23.4787 25.2515 22.9581C26.5632 22.4376 27.6969 21.6855 28.6528 20.7019C29.6156 19.7324 30.3568 18.5792 30.8765 17.2423C31.396 15.9054 31.6557 14.467 31.6557 12.9273C30.1571 12.9273 28.7497 13.1974 27.4336 13.7377C26.1172 14.2777 24.9811 15.0349 24.0253 16.0094C22.9569 17.1005 22.1935 18.2887 21.7349 19.574C21.2763 20.8592 21.0469 22.2476 21.0469 23.739Z" fill="white"/>
</g>
</svg>
