<svg width="40" height="40" viewBox="0 0 40 40" fill="none" xmlns="http://www.w3.org/2000/svg">
<mask id="mask0_4196_8435" style="mask-type:alpha" maskUnits="userSpaceOnUse" x="0" y="0" width="40" height="40">
<rect width="40" height="40" transform="matrix(-1 0 0 1 40 0)" fill="#D9D9D9"/>
</mask>
<g mask="url(#mask0_4196_8435)">
<path d="M29.459 21.4166C29.709 21.2499 29.8965 21.0416 30.0215 20.7916C30.1465 20.5416 30.209 20.2777 30.209 19.9999C30.209 19.7221 30.1465 19.4583 30.0215 19.2083C29.8965 18.9583 29.709 18.7499 29.459 18.5833L15.8757 9.95825C15.7368 9.87492 15.5909 9.81242 15.4382 9.77075C15.2854 9.72909 15.1395 9.70825 15.0007 9.70825C14.5562 9.70825 14.1673 9.86797 13.834 10.1874C13.5007 10.5069 13.334 10.9027 13.334 11.3749V28.6249C13.334 29.0971 13.5007 29.493 13.834 29.8124C14.1673 30.1319 14.5562 30.2916 15.0007 30.2916C15.1395 30.2916 15.2854 30.2708 15.4382 30.2291C15.5909 30.1874 15.7368 30.1249 15.8757 30.0416L29.459 21.4166Z" fill="white"/>
</g>
</svg>
