<svg width="44" height="32" viewBox="0 0 44 32" fill="none" xmlns="http://www.w3.org/2000/svg">
<path d="M39.3427 12.7531C38.444 11.4364 36.9247 9.8307 36.379 9.56308C35.5605 9.16166 33.9342 9.53097 33.9342 9.53097C33.9342 9.53097 33.6667 9.31153 33.533 9.2473C33.3992 9.18307 30.9062 10.1197 30.9062 10.1197L31.0453 10.2963L31.0774 10.3392L35.6782 16.0554C35.6782 16.0554 39.7975 15.2419 40.0168 14.332C40.0917 14.0216 39.7921 13.4275 39.3374 12.7584L39.3427 12.7531ZM37.4008 14.7281C37.1173 14.8458 37.1012 14.9422 36.0741 13.497C35.6193 12.8601 35.4268 12.2446 35.3519 11.7789C35.2716 11.2865 35.3198 10.9547 35.3305 10.9226C35.3465 10.8797 35.5658 10.8048 35.6889 10.7674C35.737 10.7513 35.7852 10.7674 35.828 10.7941C36.1704 11.0724 37.8609 12.4587 38.444 13.8182C38.4868 13.9145 38.4333 14.0216 38.3316 14.1286C38.0962 14.3855 37.5987 14.6478 37.4008 14.7281Z" fill="#4F4633"/>
<g opacity="0.7" style="mix-blend-mode:overlay">
<path d="M38.3314 14.1286C38.433 14.0215 38.4812 13.9091 38.4437 13.8181C37.8553 12.464 36.1701 11.0724 35.8277 10.7941C35.7903 10.762 35.7368 10.7512 35.6886 10.7673C35.5709 10.8048 35.3462 10.8797 35.3302 10.9225C35.3195 10.9546 35.2714 11.2865 35.3516 11.7789C35.2981 11.7307 35.2714 11.704 35.2714 11.704C35.2714 11.704 35.0306 10.5264 35.1751 10.3445C35.3195 10.1571 35.8063 10.0394 35.8919 10.1036C35.9775 10.1678 39.1017 12.9725 38.9733 14.0483C38.9412 14.3212 38.6898 14.3052 38.3314 14.1339V14.1286Z" fill="white"/>
</g>
<path d="M38.9584 13.9558C38.2523 12.3233 36.2194 10.6481 35.8075 10.3216C35.7593 10.2841 35.7005 10.2734 35.6416 10.2895C35.4972 10.3323 35.2297 10.4233 35.2137 10.4768C35.1869 10.5517 34.989 11.9968 36.1124 13.5704C37.3482 15.3099 37.3696 15.1975 37.712 15.053C38.0543 14.9085 39.1296 14.3304 38.9638 13.9504L38.9584 13.9558ZM37.4017 14.7265C37.1182 14.8443 37.1021 14.9406 36.075 13.4955C35.1441 12.1842 35.3099 10.9853 35.3313 10.9264C35.3474 10.8836 35.5667 10.8086 35.6898 10.7712C35.7379 10.7551 35.7861 10.7712 35.8289 10.7979C36.1713 11.0762 37.8618 12.4625 38.4449 13.822C38.5786 14.1378 37.6852 14.6195 37.407 14.7372L37.4017 14.7265Z" fill="#332914"/>
<g opacity="0.7" style="mix-blend-mode:overlay">
<path d="M39.3413 12.7531C38.4853 11.7201 37.1372 10.1947 36.3348 9.80929C35.0883 9.20983 31.1188 10.3445 31.1188 10.3445L31.0492 10.2963L30.9102 10.1197C30.9102 10.1197 33.3978 9.18307 33.5369 9.2473C33.6706 9.31153 33.9381 9.53097 33.9381 9.53097C33.9381 9.53097 35.559 9.15631 36.3829 9.56308C36.9286 9.8307 38.4479 11.4364 39.3466 12.7531H39.3413Z" fill="white"/>
</g>
<path d="M33.9342 9.53097L31.0828 10.3392L30.9062 10.1197C30.9062 10.1197 33.3939 9.18307 33.5276 9.2473C33.6614 9.31153 33.9288 9.53097 33.9288 9.53097H33.9342Z" fill="#332914"/>
<path opacity="0.3" d="M34.7757 10.3546C34.9683 10.5634 34.9629 10.8631 35.0111 11.3394C35.1876 13.079 36.3752 14.1655 36.2308 14.2993C36.1131 14.4117 35.2144 13.3894 33.4811 12.1584C32.6572 11.5749 32.2881 11.3983 32.3095 11.0986C32.363 10.4456 34.2835 9.81404 34.7703 10.3546H34.7757Z" fill="url(#paint0_linear_2003_4390)" style="mix-blend-mode:multiply"/>
<path d="M23.5977 26.7322C23.9561 25.7367 24.6087 24.6234 25.6626 23.6118C26.9626 22.3701 28.8725 21.2889 31.6008 20.8179C32.3123 20.6948 32.9757 20.5342 33.5855 20.3469C37.983 18.9927 39.8714 16.14 40.5562 14.4433C42.2093 10.3434 41.3854 6.7306 38.1007 3.06961L38.7373 2.24536L39.4381 1.34082C40.0694 2.03127 44.0068 6.48974 43.1401 11.9116C42.7335 14.4379 41.7492 16.3541 40.829 17.66C40.0801 18.7198 39.3739 19.3728 39.0583 19.6136C34.6555 22.9749 30.0066 21.8027 27.1017 24.9873" fill="#80D1AC"/>
<path d="M42.1562 12.5693C40.8027 18.8903 33.5859 20.3515 33.5859 20.3515C37.9834 18.9974 39.8718 16.1446 40.5566 14.4479C42.2097 10.3481 41.3858 6.73524 38.1011 3.07426L38.7377 2.25C40.1821 3.79147 43.194 7.704 42.1562 12.5693Z" fill="#80D1AC"/>
<g opacity="0.5" style="mix-blend-mode:multiply">
<path d="M33.8286 21.6583C37.3433 20.7431 39.5956 18.9501 40.8367 17.6602C40.0877 18.7199 39.3816 19.3729 39.0659 19.6137C34.6631 22.975 30.0143 21.8028 27.1094 24.9875" fill="#45CFDD"/>
</g>
<g opacity="0.5" style="mix-blend-mode:multiply">
<path d="M23.5977 26.7317C23.9561 25.7362 24.6087 24.6229 25.6626 23.6113L23.5977 26.7317Z" fill="#45CFDD"/>
</g>
<g opacity="0.7" style="mix-blend-mode:overlay">
<path d="M24.31 26.4168C24.4598 25.9832 24.6685 25.5658 24.9092 25.1643C25.1499 24.7629 25.4228 24.3829 25.7277 24.0189C26.038 23.6603 26.3857 23.3285 26.7602 23.0288C27.14 22.7344 27.552 22.4721 27.9906 22.258C28.0976 22.2045 28.2153 22.1563 28.3223 22.1028C28.4347 22.0546 28.5524 22.0118 28.6647 21.969L29.0124 21.8513L29.3602 21.7496C29.5902 21.68 29.8202 21.6158 30.0556 21.5515C30.2857 21.4873 30.521 21.4284 30.7511 21.3696C31.6873 21.1394 32.6235 20.936 33.5383 20.6845C33.9983 20.5667 34.4424 20.4168 34.8864 20.2563C35.3251 20.085 35.7584 19.903 36.181 19.6943C37.0209 19.2768 37.8234 18.779 38.5991 18.2492C39.3587 17.7086 40.0435 17.0717 40.6266 16.3544C41.2044 15.6372 41.6912 14.8344 42.0015 13.9727C41.8891 14.4169 41.7126 14.8504 41.504 15.2626C41.2953 15.68 41.0546 16.0761 40.7764 16.4615C40.2254 17.2269 39.5513 17.912 38.7863 18.49C38.4011 18.7737 38.016 19.052 37.6094 19.3089C37.4115 19.4427 37.2028 19.5605 36.9942 19.6836C36.7909 19.8067 36.5769 19.9191 36.3629 20.0315C36.1543 20.1492 35.9296 20.2456 35.7102 20.3473C35.4909 20.449 35.2609 20.5346 35.0362 20.6256C34.5815 20.7915 34.1214 20.9467 33.6506 21.0752C32.7144 21.3321 31.7729 21.5194 30.8474 21.7496C30.6173 21.8031 30.3819 21.8566 30.1519 21.9155C29.9219 21.9744 29.6918 22.0332 29.4618 22.0975C28.9964 22.2152 28.5577 22.3544 28.1351 22.5471C27.2898 22.9271 26.5248 23.4837 25.8828 24.1528C25.2355 24.8164 24.7006 25.5818 24.3047 26.4168H24.31Z" fill="white"/>
</g>
<g opacity="0.7" style="mix-blend-mode:overlay">
<path d="M40.0568 2.34726C40.1103 2.31515 41.1481 3.6211 41.9506 5.41948C42.9296 7.61928 43.1168 9.57823 43.0473 9.58893C42.9831 9.60499 42.6996 7.80661 41.6029 5.33384C40.7897 3.5087 40.0087 2.37402 40.0568 2.34726Z" fill="white"/>
</g>
<g opacity="0.5" style="mix-blend-mode:multiply">
<path d="M39.0182 3.07957C39.1359 3.00999 40.5268 4.49793 41.34 6.51575C42.8165 10.1767 41.6717 13.7842 41.5112 13.7735C41.3614 13.7681 42.4688 11.3864 41.1795 7.57016C40.4091 5.28472 38.9005 3.1438 39.0182 3.07422V3.07957Z" fill="#45CFDD"/>
</g>
<path d="M39.0216 27.4756C39.0216 27.4756 38.2138 28.7281 32.9122 28.6959C29.0337 28.6692 23.3737 27.1491 20.5009 25.7147L20.3672 23.8146L22.1272 22.5087L23.2453 21.6791L28.9481 16.7442C28.9481 16.7442 32.9176 15.5988 35.555 14.9084C36.3521 14.6996 37.0262 14.5337 37.4381 14.4534C37.5237 14.4374 37.5932 14.4267 37.6574 14.416C37.6574 14.416 37.6628 14.416 37.6681 14.416C37.7163 14.4106 37.7591 14.4053 37.7912 14.4053C37.8233 14.4053 37.85 14.4053 37.8875 14.416C38.7595 14.6675 40.3911 18.4677 40.45 19.2331C40.5088 20.0305 39.3961 20.3249 39.3961 20.3249L39.0162 27.4756H39.0216Z" fill="#93CEB3"/>
<path d="M39.0216 27.476C39.0216 27.476 38.2138 28.7284 32.9122 28.6963C29.0337 28.6696 23.3737 27.1495 20.5009 25.7151L20.3672 23.815C20.3672 23.815 21.2713 24.5965 22.5552 24.9337C22.6141 24.9497 22.6729 24.9658 22.7318 24.9765C25.8934 25.6776 28.0868 24.4519 30.018 22.8088C31.5267 21.5242 35.2287 16.2843 36.1862 15.262C36.6784 14.7375 37.1171 14.5288 37.4327 14.4485C37.513 14.4271 37.5879 14.4164 37.6521 14.411C37.6521 14.411 37.6574 14.411 37.6628 14.411C37.7644 14.4003 37.8393 14.411 37.8821 14.411C37.8928 14.411 37.9035 14.4164 37.9142 14.4217C38.7915 14.7536 40.3858 18.4681 40.4446 19.2281C40.5035 20.0256 39.3907 20.32 39.3907 20.32L39.0109 27.4706L39.0216 27.476Z" fill="#A3D6C0"/>
<path d="M38.089 14.9686C38.2709 15.0167 38.3511 15.1398 39.0091 16.4137C39.9293 18.196 40.063 18.5172 39.9239 18.667C39.7581 18.8436 39.3783 18.6081 38.6721 18.4262C36.8478 17.9605 35.9116 18.6456 35.6014 18.2174C35.0824 17.4949 37.0458 14.6902 38.089 14.9686Z" fill="#6FA58C"/>
<path d="M37.9205 14.4271C37.669 14.4431 37.1983 14.6251 36.4439 15.4868C35.251 16.8517 31.5864 22.1451 30.0885 23.3065C28.5906 24.468 25.5359 26.1272 22.5508 24.9337C22.6096 24.9497 22.6685 24.9658 22.7273 24.9765C25.889 25.6776 28.0824 24.4519 30.0136 22.8088C31.5222 21.5242 35.2242 16.2843 36.1818 15.262C36.674 14.7375 37.1127 14.5288 37.4283 14.4485C37.5085 14.4271 37.5834 14.4164 37.6476 14.411C37.6476 14.411 37.653 14.411 37.6583 14.411C37.76 14.4003 37.8349 14.411 37.8777 14.411C37.8884 14.411 37.8991 14.4164 37.9098 14.4217L37.9205 14.4271Z" fill="#62AF8C"/>
<path d="M39.0216 27.4759C39.0216 27.4759 38.2138 28.7283 32.9122 28.6962C30.9756 28.6855 28.595 28.3001 26.3428 27.7381C24.0799 27.1761 21.94 26.4322 20.5009 25.715L20.3672 23.8149C20.3672 23.8149 21.4478 25.351 24.7753 25.5705C24.8609 25.5758 24.9465 25.5812 25.0321 25.5865C32.4789 25.9451 39.4014 20.3252 39.4014 20.3252L39.0216 27.4759Z" fill="#4F4633"/>
<path opacity="0.7" d="M39.0191 27.4607C39.0191 27.4607 39.0031 27.4875 38.9603 27.5303L39.3241 20.6794C39.3241 20.6794 32.2464 26.4277 24.698 25.93C21.9643 25.748 20.7445 24.6775 20.3968 24.3029L20.3594 23.7997C20.3594 23.7997 21.44 25.3359 24.7675 25.5553C32.3106 26.0584 39.3936 20.3047 39.3936 20.3047L39.0138 27.4607H39.0191Z" fill="url(#paint1_linear_2003_4390)" style="mix-blend-mode:multiply"/>
<path d="M35.5566 14.9091C35.3427 15.2463 34.7649 15.7227 34.7114 15.728C34.6472 15.728 34.5563 15.6638 34.5563 15.6638C34.5563 15.6638 30.4584 22.2739 28.1313 23.6173C28.051 23.6602 27.9708 23.703 27.8959 23.7351C27.6551 23.8421 27.4037 23.9224 27.1469 23.9813C24.991 24.4844 22.5141 23.4835 22.5141 23.4835C22.5141 23.4835 22.284 23.1356 22.1289 22.4987L23.247 21.6691L28.9498 16.7343C28.9498 16.7343 32.9192 15.5889 35.5566 14.8984V14.9091Z" fill="#A3D6C0"/>
<path d="M35.013 14.4213C34.6599 15.2456 34.0233 15.9467 33.2957 16.2304C30.6209 17.2795 26.0416 12.9227 26.6675 11.1778C26.7263 11.0119 26.8387 10.8674 26.9831 10.7443C27.8712 9.9896 30.1501 9.8558 31.418 10.0538C31.9423 10.1341 32.9587 10.2947 33.8147 10.7657C34.4138 11.0922 34.9381 11.5739 35.1681 12.2804C35.3928 12.9708 35.3019 13.7362 35.0077 14.4213H35.013Z" fill="#BACCC4"/>
<path d="M34.4584 15.4711C34.4584 15.4711 30.3605 22.0812 28.0334 23.4247C27.9531 23.4675 27.8729 23.5103 27.798 23.5424C27.5573 23.6495 27.3058 23.7298 27.049 23.7886C24.8931 24.2917 22.4162 23.2909 22.4162 23.2909C22.4162 23.2909 21.6566 22.1508 21.9775 20.2614C22.0203 19.9938 22.0899 19.7102 22.1808 19.4158C22.8816 17.1946 25.5511 12.8003 25.9203 12.1955C25.947 12.1473 25.9631 12.1259 25.9631 12.1259C29.9539 10.9377 33.6185 13.0198 34.4584 15.4711Z" fill="#62AF8C"/>
<g opacity="0.7" style="mix-blend-mode:multiply">
<path d="M35.0089 14.4206C34.6719 14.062 34.1904 13.5481 33.5538 12.847C32.1682 11.3376 26.9844 10.7435 26.9844 10.7435C26.9844 10.7435 28.509 10.0905 30.9271 10.7596C32.3234 11.1449 33.4522 11.9317 33.8213 11.5036C33.9764 11.3269 33.9283 11.0379 33.8213 10.7596C34.4205 11.0861 34.9447 11.5678 35.1748 12.2743C35.3994 12.9647 35.3085 13.7301 35.0143 14.4152L35.0089 14.4206Z" fill="#97AFA4"/>
</g>
<path d="M34.4584 15.4706C34.4584 15.4706 30.3605 22.0807 28.0334 23.4242C27.7338 23.5901 27.4021 23.7078 27.049 23.7881C24.8931 24.2912 22.4162 23.2903 22.4162 23.2903C22.4162 23.2903 21.6566 22.1503 21.9775 20.2609C22.122 20.6998 22.4644 21.0317 22.903 21.2565C23.8446 21.7489 25.2194 21.781 25.9684 21.5134C27.14 21.0959 29.665 18.7302 31.1041 16.5357V16.525C31.9975 15.1709 32.4736 13.8863 31.9601 13.1638C30.751 11.4724 26.7281 12.0505 25.9256 12.1897C25.9524 12.1415 25.9684 12.1201 25.9684 12.1201C29.9593 10.9319 33.6238 13.0139 34.4637 15.4653L34.4584 15.4706Z" fill="#80D1AC"/>
<path d="M34.6158 15.5345C34.5516 15.5345 34.4606 15.4703 34.4606 15.4703C33.3104 12.5693 29.5228 11.1296 25.9653 12.1251C25.9653 12.1251 25.9385 12.1251 25.9064 12.1037C25.8797 12.0876 25.8476 12.0609 25.8209 12.0127C25.7674 11.911 26.2114 11.076 26.3612 10.9583C26.511 10.8405 28.8113 9.97882 31.7804 11.1831C32.6043 11.5149 33.2623 11.8949 33.7759 12.2803C35.1186 13.2758 35.5252 14.2821 35.5359 14.4962C35.552 14.7959 34.68 15.5238 34.6158 15.5292V15.5345Z" fill="#4F4633"/>
<path opacity="0.7" d="M34.6113 15.5353C34.5471 15.5353 34.4562 15.4711 34.4562 15.4711C33.306 12.5701 29.5184 11.1303 25.9609 12.1259C25.9609 12.1259 25.9341 12.1259 25.902 12.1045L25.8164 12.0135C25.8164 12.0135 27.5979 11.125 30.2674 11.8422C32.9369 12.5594 32.8834 13.2445 33.4183 12.9983C33.7072 12.8645 33.7714 12.5434 33.7714 12.2757C35.1142 13.2713 35.5208 14.2775 35.5315 14.4916C35.5475 14.7913 34.6755 15.5192 34.6113 15.5246V15.5353Z" fill="url(#paint2_linear_2003_4390)" style="mix-blend-mode:multiply"/>
<g opacity="0.7" style="mix-blend-mode:overlay">
<path d="M26.1407 12.5217C25.3971 12.7679 22.2354 19.2656 22.4869 19.4957C23.1181 20.0738 29.2756 15.7812 28.5588 13.6242C28.2859 12.8 26.9913 12.238 26.1353 12.5217H26.1407Z" fill="#F9E2AF"/>
</g>
<g opacity="0.7" style="mix-blend-mode:overlay">
<path d="M26.4532 11.0179C26.4425 10.9644 27.2503 10.7342 28.1384 10.6646C29.8182 10.5362 31.1931 11.0339 31.177 11.1035C31.1663 11.1678 30.0054 10.852 28.117 10.9162C27.1487 10.9483 26.4639 11.0661 26.4532 11.0179Z" fill="white"/>
</g>
<path opacity="0.7" d="M31.0942 16.5405C30.0135 18.3442 27.8683 21.2077 26.0922 21.7644C24.5033 22.2675 23.4548 21.6573 22.8984 21.2559C23.84 21.7483 25.2149 21.7804 25.9638 21.5128C27.1354 21.0953 29.6604 18.7296 31.0995 16.5352L31.0942 16.5405Z" fill="url(#paint3_linear_2003_4390)" style="mix-blend-mode:multiply"/>
<g opacity="0.7" style="mix-blend-mode:overlay">
<path d="M26.1305 12.7732C25.9219 12.7946 24.7449 14.8499 24.8198 14.9302C25.0071 15.1336 26.8581 14.1488 26.7404 13.3352C26.6976 13.0355 26.3819 12.7464 26.1358 12.7732H26.1305Z" fill="white"/>
</g>
<g opacity="0.7" style="mix-blend-mode:overlay">
<path d="M25.534 15.0949C25.4217 15.0574 25.2826 15.2019 25.1596 15.3197C25.074 15.4053 24.8493 15.6355 24.9081 15.7479C24.983 15.8763 25.4806 15.8763 25.6303 15.6034C25.7266 15.4214 25.6624 15.1377 25.534 15.0949Z" fill="white"/>
</g>
<path opacity="0.2" d="M24.8281 22.2095C25.3417 22.1774 26.1335 22.1292 26.861 21.7492C28.2573 21.0213 28.6692 19.817 28.942 19.9348C29.3219 20.0954 29.3433 22.6377 27.7812 23.296C26.845 23.6921 25.5717 23.2853 24.8281 22.2095Z" fill="url(#paint4_linear_2003_4390)" style="mix-blend-mode:multiply"/>
<path d="M22.6826 20.4967C22.8751 21.1978 24.3731 21.5779 25.5072 21.3852C27.4063 21.0587 31.975 15.4548 31.5738 14.9517C30.8248 14.0097 22.1636 18.618 22.6826 20.4967Z" fill="#A3D6C0"/>
<path d="M21.9741 22.8945L20.6367 23.8205L21.0058 24.056L21.9902 23.3441L21.9741 22.8945Z" fill="#C5FFE5"/>
<path d="M22.1553 23.4717L22.6368 23.7072L21.8985 24.6064L21.0586 24.1996L22.1553 23.4717Z" fill="#C5FFE5"/>
<path opacity="0.5" d="M39.0183 27.4764C39.0183 27.4764 38.2104 28.7288 32.9089 28.6967C31.5554 28.686 29.9933 28.4987 28.3991 28.1936C28.2279 28.1615 28.0567 28.1294 27.8855 28.0919C27.7411 28.0651 27.5966 28.033 27.4469 28.0009C27.0724 27.9206 26.7032 27.835 26.3288 27.744C25.7135 26.9786 25.2481 26.0794 25.0234 25.5924C25.3123 25.6084 25.5959 25.6084 25.8847 25.6084C26.0292 25.6084 26.1736 25.6084 26.3181 25.5977C26.4786 25.5977 26.639 25.5817 26.7995 25.571C33.5348 25.0893 39.3927 20.3311 39.3927 20.3311L39.0129 27.4817L39.0183 27.4764Z" fill="url(#paint5_linear_2003_4390)" style="mix-blend-mode:multiply"/>
<path d="M22.7654 23.7295L22.0859 24.6715L22.2946 24.7143L22.8884 23.7563L22.7921 23.7616L22.7654 23.7295Z" fill="#C5FFE5"/>
<path d="M38.3405 19.0578L38.3833 18.9454L37.4364 18.7581C34.906 18.2496 32.3489 20.3638 31.7283 23.4788C31.1131 26.5457 32.6056 29.4413 35.0665 30.014C35.0665 30.014 35.2056 30.0461 35.2216 30.0461L36.1204 30.2281L36.1471 30.105C38.3298 29.9873 40.3413 28.0337 40.887 25.3147C41.4326 22.5904 40.3199 19.9998 38.3405 19.0578Z" fill="#332914"/>
<g opacity="0.5" style="mix-blend-mode:multiply">
<path d="M41.5859 25.4549C42.2104 22.3393 40.6666 19.4022 38.1376 18.8947C35.6086 18.3873 33.0522 20.5017 32.4277 23.6174C31.8032 26.733 33.347 29.6701 35.876 30.1776C38.405 30.685 40.9614 28.5706 41.5859 25.4549Z" fill="#332914"/>
</g>
<path d="M41.832 25.5008C42.4565 22.3852 40.9127 19.4481 38.3837 18.9406C35.8547 18.4332 33.2983 20.5476 32.6738 23.6633C32.0492 26.7789 33.5931 29.716 36.1221 30.2235C38.6511 30.7309 41.2075 28.6165 41.832 25.5008Z" fill="#4F4633"/>
<g opacity="0.7" style="mix-blend-mode:overlay">
<path d="M41.8726 22.9535C41.4125 21.123 40.166 19.7046 38.4809 19.3675C35.9505 18.859 33.3933 20.9732 32.7727 24.0882C32.5962 24.9767 32.5909 25.8491 32.7406 26.6573C32.5053 25.7367 32.4732 24.7144 32.6818 23.6654C33.3077 20.5503 35.8595 18.4362 38.3899 18.9446C40.2035 19.3086 41.5088 20.9196 41.8726 22.9482V22.9535Z" fill="white"/>
</g>
<path d="M40.9646 25.3276C41.4706 22.8032 40.2182 20.4231 38.1672 20.0116C36.1162 19.6001 34.0433 21.3129 33.5373 23.8374C33.0313 26.3618 34.2837 28.7418 36.3347 29.1533C38.3857 29.5648 40.4586 27.852 40.9646 25.3276Z" fill="#332914"/>
<path d="M40.6781 25.2684C41.1643 22.8425 39.9616 20.5555 37.9917 20.1603C36.0219 19.765 34.0308 21.4112 33.5445 23.8371C33.0583 26.2629 34.261 28.5499 36.2308 28.9451C38.2007 29.3404 40.1918 27.6942 40.6781 25.2684Z" fill="#62AF8C"/>
<g opacity="0.7" style="mix-blend-mode:overlay">
<path d="M39.3886 26.095C38.8964 27.5188 37.6446 28.434 36.3981 28.1824C35.0126 27.9041 34.1673 26.2984 34.5097 24.5911C34.6113 24.0933 34.7986 23.649 35.05 23.2637C34.9965 23.4242 34.927 23.5848 34.9163 23.7614C34.7023 26.8818 38.0191 27.7703 39.394 26.095H39.3886Z" fill="#F9E2AF"/>
</g>
<path opacity="0.7" d="M39.9759 27.021C40.0454 26.8069 40.1043 26.5875 40.1524 26.3627C40.6392 23.9327 39.4355 21.6473 37.4615 21.2512C36.0171 20.9622 34.562 21.7704 33.6953 23.1781C34.3801 21.1174 36.1829 19.8007 37.9697 20.1594C39.9384 20.5554 41.1421 22.8409 40.6553 25.2708C40.5269 25.9184 40.2861 26.5125 39.9705 27.0264L39.9759 27.021Z" fill="url(#paint6_linear_2003_4390)" style="mix-blend-mode:multiply"/>
<path d="M38.5124 24.8333C38.6768 24.0131 38.2347 23.2327 37.525 23.0903C36.8153 22.9479 36.1066 23.4974 35.9422 24.3176C35.7778 25.1378 36.2199 25.9182 36.9296 26.0606C37.6394 26.203 38.348 25.6535 38.5124 24.8333Z" fill="#332914"/>
<path d="M38.5621 24.8408C38.7265 24.0206 38.3196 23.2473 37.6534 23.1136C36.9871 22.9799 36.3137 23.5364 36.1493 24.3567C35.9848 25.1769 36.3917 25.9502 37.058 26.0839C37.7243 26.2175 38.3977 25.661 38.5621 24.8408Z" fill="#4F4633"/>
<g opacity="0.7" style="mix-blend-mode:overlay">
<path d="M38.5821 24.2216C38.4644 23.7345 38.1327 23.3491 37.6833 23.2635C37.0146 23.1297 36.3406 23.6863 36.1801 24.5052C36.1373 24.7247 36.1319 24.9441 36.164 25.1475C36.1052 24.9067 36.0945 24.6391 36.148 24.3661C36.3138 23.5472 36.9879 22.9905 37.6512 23.1243C38.1434 23.2207 38.4911 23.6703 38.5767 24.2269L38.5821 24.2216Z" fill="white"/>
</g>
<path d="M37.9448 24.7258C37.8645 25.1272 37.5382 25.3948 37.2119 25.3306C36.8855 25.2664 36.6876 24.8917 36.7678 24.4903C36.8481 24.0889 37.1744 23.8213 37.5007 23.8855C37.8271 23.9497 38.025 24.3244 37.9448 24.7258Z" fill="#332914"/>
<path opacity="0.2" d="M38.3258 20.8611C39.5348 21.0216 39.9949 22.5042 40.0484 22.6808C40.4282 23.9012 39.9628 25.2178 39.6632 25.2232C39.3743 25.2232 39.5348 23.9922 38.6253 23.0609C37.7052 22.1188 36.5122 22.3383 36.4587 21.8726C36.4106 21.4338 37.4003 20.738 38.3258 20.8611Z" fill="url(#paint7_linear_2003_4390)" style="mix-blend-mode:multiply"/>
<g opacity="0.7" style="mix-blend-mode:overlay">
<path d="M35.7852 29.2424C35.7959 29.1728 36.8765 29.5849 38.0748 29.1996C40.0435 28.5627 40.7657 26.2826 40.8888 26.3521C41.0065 26.4164 40.5945 28.7607 38.7596 29.4993C37.3045 30.0881 35.7745 29.328 35.7905 29.2424H35.7852Z" fill="white"/>
</g>
<path opacity="0.3" d="M27.4586 27.9955C27.0841 27.9152 26.715 27.8295 26.3405 27.7385C25.7253 26.9732 25.2598 26.074 25.0352 25.5869C25.324 25.603 25.6076 25.603 25.8965 25.603L27.4586 28.0008V27.9955Z" fill="url(#paint8_linear_2003_4390)" style="mix-blend-mode:multiply"/>
<path opacity="0.3" d="M28.4038 28.1934C28.2326 28.1613 28.0614 28.1292 27.8902 28.0917L26.3281 25.5922C26.4886 25.5868 26.6491 25.5761 26.8096 25.5654L28.4038 28.1988V28.1934Z" fill="url(#paint9_linear_2003_4390)" style="mix-blend-mode:multiply"/>
<path d="M32.3759 6.89701C32.3759 6.89701 30.6747 8.21903 30.3912 8.3796C30.1076 8.54016 29.1875 8.88271 29.1875 8.88271L31.7179 5.97106L31.75 5.93359C32.0656 6.21191 32.3117 6.52235 32.3759 6.89701Z" fill="#4F4633"/>
<g opacity="0.7" style="mix-blend-mode:overlay">
<path d="M32.3807 6.89701C31.9955 6.65616 31.7922 6.34572 31.7227 5.97106L31.7548 5.93359C32.0704 6.21191 32.3165 6.52235 32.3807 6.89701Z" fill="white"/>
</g>
<path d="M39.2996 2.70622C39.2354 2.77045 39.1658 2.82932 39.0963 2.87749C38.6522 3.18792 38.0905 3.21468 37.7481 2.9096C37.7267 2.88819 37.7053 2.87213 37.6893 2.85072C37.6679 2.82932 37.6518 2.80791 37.6358 2.7865C37.3683 2.41719 37.4593 1.8445 37.8765 1.42702C37.9675 1.33603 38.0691 1.25574 38.1815 1.19151C38.465 1.02559 38.786 0.972066 39.0588 1.03094C39.1979 1.06306 39.3263 1.12728 39.4279 1.22363C39.8185 1.57688 39.765 2.24057 39.2996 2.70622Z" fill="#4F4633"/>
<g opacity="0.7" style="mix-blend-mode:overlay">
<path d="M39.2941 2.36355C39.4172 2.36355 39.6419 1.93001 39.4974 1.58211C39.3476 1.22351 38.8555 1.06294 38.7645 1.14858C38.7057 1.2021 38.8287 1.33055 39.0802 1.94072C39.2139 2.26186 39.2353 2.3582 39.2941 2.3582V2.36355Z" fill="white"/>
</g>
<path opacity="0.7" d="M39.0924 2.87749C38.6483 3.18792 38.0866 3.21468 37.7442 2.9096C37.7228 2.88819 37.7014 2.87213 37.6854 2.85072C37.664 2.82932 37.6479 2.80791 37.6319 2.7865C37.3644 2.41719 37.4554 1.8445 37.8726 1.42702C37.9636 1.33603 38.0652 1.25574 38.1776 1.19151C38.4611 1.02559 38.7821 0.972066 39.0549 1.03094C39.3224 1.40025 39.2315 1.97295 38.8142 2.39043C38.75 2.45465 38.6804 2.51353 38.6109 2.5617C38.5895 2.57776 38.5681 2.59382 38.5413 2.60452C38.6751 2.78115 38.8516 2.8882 39.0924 2.87214V2.87749Z" fill="url(#paint10_linear_2003_4390)" style="mix-blend-mode:multiply"/>
<path d="M12.3796 26.4648C12.3796 26.4648 11.8178 27.7226 11.5664 28.1401C11.315 28.5576 10.7265 28.7556 10.3253 28.6646C10.3253 28.6646 10.3199 28.6646 10.3146 28.6646C9.93475 28.5737 10.1113 28.0224 10.1113 28.0224L11.2882 27.2142L12.3849 26.4648H12.3796Z" fill="#332914"/>
<path d="M10.3253 28.6653C10.3253 28.6653 10.3199 28.6653 10.3146 28.6653C9.93475 28.5743 10.1113 28.023 10.1113 28.023L11.2882 27.2148C11.0582 27.7929 10.657 28.6439 10.3306 28.6653H10.3253Z" fill="url(#paint11_linear_2003_4390)" style="mix-blend-mode:multiply"/>
<path d="M16.3607 22.7025H16.3554C16.3554 22.7025 16.3447 22.7239 16.3286 22.74C16.3286 22.74 16.3179 22.7507 16.3179 22.756C16.1788 22.8952 15.7187 23.2806 15.1196 22.8952C13.841 22.0709 14.5365 21.343 14.5365 21.343C14.5525 21.327 14.5686 21.3109 14.59 21.3002C15.0661 21.0005 16.7245 22.269 16.3607 22.7132V22.7025Z" fill="#4F4633"/>
<path d="M14.5939 21.4231C14.9951 21.0859 16.5358 22.1939 16.2309 22.6863C16.2309 22.6863 16.0704 23.0609 15.2519 22.5257C14.1017 21.771 14.5992 21.4231 14.5992 21.4231H14.5939Z" fill="#332914"/>
<path d="M38.7476 2.19128C38.4159 2.58735 37.9131 2.8175 37.5974 2.48031C36.8806 1.62929 35.8962 1.7738 34.9012 2.85497L33.9489 3.85585L33.6868 4.13417L33.6494 4.17163L27.3046 10.8674C27.3046 10.8674 27.3046 10.8674 27.3046 10.8727L16.1612 22.6264L12.5395 26.448C12.1971 26.8119 11.8065 27.1331 11.3893 27.4167L8.73047 29.1883L8.74652 26.4212L9.27079 26.2446C10.3354 25.8806 11.2876 25.2758 12.0419 24.473L13.6308 22.7923L14.8024 21.5506L32.3173 3.01554L32.3387 2.99413L32.7185 2.5927L33.3979 1.87015C35.3987 -0.292189 37.2979 -0.538401 38.8921 0.944189C39.2451 1.24927 39.0847 1.80591 38.753 2.19663L38.7476 2.19128Z" fill="#80D1AC"/>
<path d="M38.7439 2.1928C38.4122 2.58887 37.9093 2.81902 37.5937 2.48183C36.8768 1.63081 35.8925 1.76997 34.8974 2.85649L33.683 4.13569C33.7633 4.0554 33.7419 3.9216 33.6563 3.77708C33.4049 3.32214 32.565 2.72803 32.3242 2.99029L33.3835 1.8663C35.3842 -0.296029 37.2834 -0.54223 38.8776 0.935008C39.2307 1.24009 39.0702 1.79673 38.7385 2.18745L38.7439 2.1928Z" fill="#4F4633"/>
<path opacity="0.7" d="M33.8518 3.96415L33.6913 4.13542L33.6538 4.17289C33.6538 4.03373 33.6057 3.70724 33.1831 3.35398C32.7765 3.01679 32.4608 2.99538 32.3164 3.00609L32.3378 2.98467L32.4822 2.82946C32.8888 2.68495 33.9106 3.4985 33.8571 3.9588L33.8518 3.96415Z" fill="url(#paint12_linear_2003_4390)" style="mix-blend-mode:multiply"/>
<path d="M14.2149 23.0875L13.6211 22.7877L14.7927 21.546L32.329 2.98953L32.7891 2.50781L14.2149 23.0875Z" fill="#E6FFF4"/>
<path d="M16.3377 22.729L12.5395 26.4489C12.5395 26.4489 12.4913 26.4971 12.4699 26.5238C12.1436 26.8557 11.7798 27.1554 11.3893 27.4177L10.1214 28.2633L9.9288 28.3918L8.73047 29.1893L8.74652 26.4221L9.27079 26.2455C9.53827 26.1545 9.79506 26.0475 10.0465 25.9297C10.972 25.4855 11.7584 24.8325 12.3843 24.0457L14.5402 21.3428C14.3637 21.5408 14.5242 21.8619 14.8131 22.1563C15.2624 22.6166 16.0382 23.0073 16.3431 22.7344L16.3377 22.729Z" fill="#4F4633"/>
<path d="M38.7438 2.19291C38.4121 2.58898 37.9092 2.81914 37.5936 2.48194C36.8767 1.63092 35.8924 1.77008 34.8974 2.8566L33.683 4.1358L27.3008 10.869C27.4613 10.6817 34.6299 1.63628 36.3364 1.29373C37.2459 1.11175 38.3158 1.82896 38.7438 2.19291Z" fill="#66A386"/>
<g opacity="0.7" style="mix-blend-mode:overlay">
<path d="M38.2811 0.698868C38.2971 0.597174 37.6177 0.15828 36.8848 0.142223C35.5741 0.115462 34.5042 0.96113 34.5523 1.05747C34.5791 1.11635 35.0285 0.86479 35.9754 0.698868C37.3235 0.463366 38.2597 0.811267 38.2811 0.698868Z" fill="white"/>
</g>
<g opacity="0.7" style="mix-blend-mode:overlay">
<path d="M33.2844 3.6373L16.3633 21.7923L32.8457 3.38574C33.0115 3.41786 33.156 3.50885 33.2844 3.64266V3.6373Z" fill="white"/>
</g>
<path opacity="0.7" d="M10.2235 26.8187C10.1432 27.2522 10.6086 27.5894 11.0259 27.3967C11.4753 27.188 11.9835 26.8829 12.4543 26.5189C12.128 26.8508 11.7642 27.1505 11.3736 27.4128L10.1058 28.2584L9.91318 28.3869L8.71484 29.1844L8.7309 26.4172L9.25516 26.2406C9.52265 26.1496 9.77944 26.0426 10.0309 25.9248C10.9564 25.4806 11.7428 24.8276 12.3687 24.0408L14.5246 21.3379C14.3481 21.5359 14.1929 21.9213 14.6905 22.312C12.8074 24.6617 12.1547 25.684 10.5391 26.4172C10.3733 26.4922 10.2556 26.642 10.2181 26.8133C10.2181 26.8133 10.2181 26.8187 10.2181 26.824L10.2235 26.8187Z" fill="url(#paint13_linear_2003_4390)" style="mix-blend-mode:multiply"/>
<path d="M14.2195 28.9225L14.0216 29.6611L13.7434 30.7209L11.1755 32.0001L0.374477 31.6254L0.123041 30.9189L0 30.5817L2.91023 28.8262L14.2195 28.9225Z" fill="#4F4633"/>
<path d="M14.2195 28.9229L14.0216 29.6615L13.7434 30.7212L11.1755 32.0004L0.374477 31.6258L0.123041 30.9193L0 30.5821L11.2825 30.8711L14.2195 28.9229Z" fill="url(#paint14_linear_2003_4390)" style="mix-blend-mode:multiply"/>
<path d="M14.2195 28.9229L14.0216 29.6615L11.2451 31.219L0.123041 30.9193L0 30.5821L11.2825 30.8711L14.2195 28.9229Z" fill="#62AF8C"/>
<path opacity="0.7" d="M14.2159 28.9229L13.7397 30.7212L11.1719 32.0004L11.2789 30.8657L14.2159 28.9229Z" fill="url(#paint15_linear_2003_4390)" style="mix-blend-mode:multiply"/>
<path opacity="0.4" d="M14.2195 28.9223L11.2825 30.8652L0 30.5762C6.19495 30.5013 10.9508 30.694 14.2141 28.917L14.2195 28.9223Z" fill="url(#paint16_linear_2003_4390)" style="mix-blend-mode:multiply"/>
<g opacity="0.3" style="mix-blend-mode:overlay">
<path d="M4.40466 29.0657C4.40466 29.0657 4.25486 28.9908 3.79479 28.9747C3.27587 28.9533 3.12608 29.0068 3.04583 29.0175C2.6767 29.0764 0.702664 30.2807 0.734762 30.3503C0.804308 30.5108 4.4635 29.2745 4.40466 29.0657Z" fill="white"/>
</g>
<path d="M10.615 26.9193V28.6107L10.6203 28.8943L9.62527 28.8836L8.10061 30.2913H7.96152L4.6875 30.2324C5.04058 29.3011 5.44716 28.525 5.91258 27.9149C7.07347 26.3948 8.60348 25.9506 10.6096 26.914L10.615 26.9193Z" fill="#332914"/>
<path d="M10.6198 26.9189V28.6103L10.6252 28.8939L9.63013 28.8832L8.10547 30.2909C8.4532 28.166 9.2503 26.9511 10.6145 26.9189H10.6198Z" fill="url(#paint17_linear_2003_4390)" style="mix-blend-mode:multiply"/>
<g opacity="0.7" style="mix-blend-mode:overlay">
<path d="M7.38426 26.7965C8.11182 26.8232 8.72703 26.9838 9.02126 27.5244C9.33155 27.1872 9.71137 26.9356 10.2089 26.8339C9.2085 26.4539 8.19741 26.379 7.37891 26.7965H7.38426Z" fill="white"/>
</g>
<path opacity="0.4" d="M8.13033 29.4611L7.96984 30.2425L4.82422 30.189C5.1666 29.2951 5.55713 28.5512 6.00115 27.9678C5.95301 29.2577 6.64846 29.7769 8.12498 29.4664L8.13033 29.4611Z" fill="url(#paint18_linear_2003_4390)" style="mix-blend-mode:multiply"/>
<path d="M10.6198 28.6061V28.8898L9.63014 28.879L8.10547 30.2867C8.13222 30.2278 9.03097 28.3652 9.60339 28.3331C9.91367 28.3117 10.3202 28.4616 10.6198 28.6061Z" fill="url(#paint19_linear_2003_4390)" style="mix-blend-mode:multiply"/>
<g opacity="0.7" style="mix-blend-mode:overlay">
<path d="M14.9645 22.5838C15.0393 22.5999 15.5529 22.9531 15.585 22.996C15.8151 23.3171 13.1884 25.6025 12.9744 25.4045C12.9102 25.3456 13.167 25.1262 13.8517 24.0022C14.3064 23.2636 14.7077 22.5196 14.9645 22.5785V22.5838Z" fill="white"/>
</g>
<defs>
<linearGradient id="paint0_linear_2003_4390" x1="32.2227" y1="11.6023" x2="36.6131" y2="12.4824" gradientUnits="userSpaceOnUse">
<stop stop-color="#EFD4DB"/>
<stop offset="0.07" stop-color="#E8C2CC"/>
<stop offset="0.3" stop-color="#D68FA2"/>
<stop offset="0.51" stop-color="#C76781"/>
<stop offset="0.71" stop-color="#BD4A69"/>
<stop offset="0.88" stop-color="#B7395B"/>
<stop offset="1" stop-color="#B53356"/>
</linearGradient>
<linearGradient id="paint1_linear_2003_4390" x1="20.9508" y1="20.9145" x2="39.5932" y2="24.6513" gradientUnits="userSpaceOnUse">
<stop stop-color="#EFD4DB"/>
<stop offset="0.07" stop-color="#E8C2CC"/>
<stop offset="0.3" stop-color="#D68FA2"/>
<stop offset="0.51" stop-color="#C76781"/>
<stop offset="0.71" stop-color="#BD4A69"/>
<stop offset="0.88" stop-color="#B7395B"/>
<stop offset="1" stop-color="#B53356"/>
</linearGradient>
<linearGradient id="paint2_linear_2003_4390" x1="25.785" y1="12.2053" x2="35.6098" y2="14.1746" gradientUnits="userSpaceOnUse">
<stop stop-color="#EFD4DB"/>
<stop offset="0.07" stop-color="#E8C2CC"/>
<stop offset="0.3" stop-color="#D68FA2"/>
<stop offset="0.51" stop-color="#C76781"/>
<stop offset="0.71" stop-color="#BD4A69"/>
<stop offset="0.88" stop-color="#B7395B"/>
<stop offset="1" stop-color="#B53356"/>
</linearGradient>
<linearGradient id="paint3_linear_2003_4390" x1="23.4861" y1="18.3531" x2="30.4625" y2="19.7515" gradientUnits="userSpaceOnUse">
<stop stop-color="#EFD4DB"/>
<stop offset="0.07" stop-color="#E8C2CC"/>
<stop offset="0.3" stop-color="#D68FA2"/>
<stop offset="0.51" stop-color="#C76781"/>
<stop offset="0.71" stop-color="#BD4A69"/>
<stop offset="0.88" stop-color="#B7395B"/>
<stop offset="1" stop-color="#B53356"/>
</linearGradient>
<linearGradient id="paint4_linear_2003_4390" x1="25.0611" y1="21.1039" x2="29.0057" y2="21.8946" gradientUnits="userSpaceOnUse">
<stop stop-color="#EFD4DB"/>
<stop offset="0.07" stop-color="#E8C2CC"/>
<stop offset="0.3" stop-color="#D68FA2"/>
<stop offset="0.51" stop-color="#C76781"/>
<stop offset="0.71" stop-color="#BD4A69"/>
<stop offset="0.88" stop-color="#B7395B"/>
<stop offset="1" stop-color="#B53356"/>
</linearGradient>
<linearGradient id="paint5_linear_2003_4390" x1="25.6346" y1="22.5855" x2="39.4512" y2="25.355" gradientUnits="userSpaceOnUse">
<stop stop-color="#EFD4DB"/>
<stop offset="0.07" stop-color="#E8C2CC"/>
<stop offset="0.3" stop-color="#D68FA2"/>
<stop offset="0.51" stop-color="#C76781"/>
<stop offset="0.71" stop-color="#BD4A69"/>
<stop offset="0.88" stop-color="#B7395B"/>
<stop offset="1" stop-color="#B53356"/>
</linearGradient>
<linearGradient id="paint6_linear_2003_4390" x1="33.8277" y1="22.5411" x2="40.9248" y2="23.9637" gradientUnits="userSpaceOnUse">
<stop stop-color="#EFD4DB"/>
<stop offset="0.07" stop-color="#E8C2CC"/>
<stop offset="0.3" stop-color="#D68FA2"/>
<stop offset="0.51" stop-color="#C76781"/>
<stop offset="0.71" stop-color="#BD4A69"/>
<stop offset="0.88" stop-color="#B7395B"/>
<stop offset="1" stop-color="#B53356"/>
</linearGradient>
<linearGradient id="paint7_linear_2003_4390" x1="36.3297" y1="22.4873" x2="40.3425" y2="23.2917" gradientUnits="userSpaceOnUse">
<stop stop-color="#EFD4DB"/>
<stop offset="0.07" stop-color="#E8C2CC"/>
<stop offset="0.3" stop-color="#D68FA2"/>
<stop offset="0.51" stop-color="#C76781"/>
<stop offset="0.71" stop-color="#BD4A69"/>
<stop offset="0.88" stop-color="#B7395B"/>
<stop offset="1" stop-color="#B53356"/>
</linearGradient>
<linearGradient id="paint8_linear_2003_4390" x1="24.8721" y1="26.4216" x2="27.6679" y2="26.982" gradientUnits="userSpaceOnUse">
<stop stop-color="#EFD4DB"/>
<stop offset="0.07" stop-color="#E8C2CC"/>
<stop offset="0.3" stop-color="#D68FA2"/>
<stop offset="0.51" stop-color="#C76781"/>
<stop offset="0.71" stop-color="#BD4A69"/>
<stop offset="0.88" stop-color="#B7395B"/>
<stop offset="1" stop-color="#B53356"/>
</linearGradient>
<linearGradient id="paint9_linear_2003_4390" x1="26.1398" y1="26.567" x2="28.6367" y2="27.0675" gradientUnits="userSpaceOnUse">
<stop stop-color="#EFD4DB"/>
<stop offset="0.07" stop-color="#E8C2CC"/>
<stop offset="0.3" stop-color="#D68FA2"/>
<stop offset="0.51" stop-color="#C76781"/>
<stop offset="0.71" stop-color="#BD4A69"/>
<stop offset="0.88" stop-color="#B7395B"/>
<stop offset="1" stop-color="#B53356"/>
</linearGradient>
<linearGradient id="paint10_linear_2003_4390" x1="37.6651" y1="1.66222" x2="39.322" y2="2.33134" gradientUnits="userSpaceOnUse">
<stop stop-color="#EFD4DB"/>
<stop offset="0.07" stop-color="#E8C2CC"/>
<stop offset="0.3" stop-color="#D68FA2"/>
<stop offset="0.51" stop-color="#C76781"/>
<stop offset="0.71" stop-color="#BD4A69"/>
<stop offset="0.88" stop-color="#B7395B"/>
<stop offset="1" stop-color="#B53356"/>
</linearGradient>
<linearGradient id="paint11_linear_2003_4390" x1="10.2551" y1="27.6844" x2="10.9844" y2="27.9789" gradientUnits="userSpaceOnUse">
<stop stop-color="#EFD4DB"/>
<stop offset="0.07" stop-color="#E8C2CC"/>
<stop offset="0.3" stop-color="#D68FA2"/>
<stop offset="0.51" stop-color="#C76781"/>
<stop offset="0.71" stop-color="#BD4A69"/>
<stop offset="0.88" stop-color="#B7395B"/>
<stop offset="1" stop-color="#B53356"/>
</linearGradient>
<linearGradient id="paint12_linear_2003_4390" x1="32.2858" y1="3.10077" x2="33.9378" y2="3.76788" gradientUnits="userSpaceOnUse">
<stop stop-color="#EFD4DB"/>
<stop offset="0.07" stop-color="#E8C2CC"/>
<stop offset="0.3" stop-color="#D68FA2"/>
<stop offset="0.51" stop-color="#C76781"/>
<stop offset="0.71" stop-color="#BD4A69"/>
<stop offset="0.88" stop-color="#B7395B"/>
<stop offset="1" stop-color="#B53356"/>
</linearGradient>
<linearGradient id="paint13_linear_2003_4390" x1="13.1847" y1="20.758" x2="9.64061" y2="29.5257" gradientUnits="userSpaceOnUse">
<stop stop-color="#EFD4DB"/>
<stop offset="0.07" stop-color="#E8C2CC"/>
<stop offset="0.3" stop-color="#D68FA2"/>
<stop offset="0.51" stop-color="#C76781"/>
<stop offset="0.71" stop-color="#BD4A69"/>
<stop offset="0.88" stop-color="#B7395B"/>
<stop offset="1" stop-color="#B53356"/>
</linearGradient>
<linearGradient id="paint14_linear_2003_4390" x1="0.00660219" y1="30.9428" x2="14.2693" y2="30.4002" gradientUnits="userSpaceOnUse">
<stop stop-color="#EFD4DB"/>
<stop offset="0.07" stop-color="#E8C2CC"/>
<stop offset="0.3" stop-color="#D68FA2"/>
<stop offset="0.51" stop-color="#C76781"/>
<stop offset="0.71" stop-color="#BD4A69"/>
<stop offset="0.88" stop-color="#B7395B"/>
<stop offset="1" stop-color="#B53356"/>
</linearGradient>
<linearGradient id="paint15_linear_2003_4390" x1="14.2656" y1="30.3996" x2="11.1116" y2="30.5196" gradientUnits="userSpaceOnUse">
<stop stop-color="#EFD4DB"/>
<stop offset="0.07" stop-color="#E8C2CC"/>
<stop offset="0.3" stop-color="#D68FA2"/>
<stop offset="0.51" stop-color="#C76781"/>
<stop offset="0.71" stop-color="#BD4A69"/>
<stop offset="0.88" stop-color="#B7395B"/>
<stop offset="1" stop-color="#B53356"/>
</linearGradient>
<linearGradient id="paint16_linear_2003_4390" x1="-0.014765" y1="30.3807" x2="14.2479" y2="29.8381" gradientUnits="userSpaceOnUse">
<stop stop-color="#EFD4DB"/>
<stop offset="0.07" stop-color="#E8C2CC"/>
<stop offset="0.3" stop-color="#D68FA2"/>
<stop offset="0.51" stop-color="#C76781"/>
<stop offset="0.71" stop-color="#BD4A69"/>
<stop offset="0.88" stop-color="#B7395B"/>
<stop offset="1" stop-color="#B53356"/>
</linearGradient>
<linearGradient id="paint17_linear_2003_4390" x1="8.03626" y1="28.6533" x2="10.6718" y2="28.553" gradientUnits="userSpaceOnUse">
<stop stop-color="#EFD4DB"/>
<stop offset="0.07" stop-color="#E8C2CC"/>
<stop offset="0.3" stop-color="#D68FA2"/>
<stop offset="0.51" stop-color="#C76781"/>
<stop offset="0.71" stop-color="#BD4A69"/>
<stop offset="0.88" stop-color="#B7395B"/>
<stop offset="1" stop-color="#B53356"/>
</linearGradient>
<linearGradient id="paint18_linear_2003_4390" x1="4.78354" y1="29.184" x2="8.10865" y2="29.0575" gradientUnits="userSpaceOnUse">
<stop stop-color="#EFD4DB"/>
<stop offset="0.07" stop-color="#E8C2CC"/>
<stop offset="0.3" stop-color="#D68FA2"/>
<stop offset="0.51" stop-color="#C76781"/>
<stop offset="0.71" stop-color="#BD4A69"/>
<stop offset="0.88" stop-color="#B7395B"/>
<stop offset="1" stop-color="#B53356"/>
</linearGradient>
<linearGradient id="paint19_linear_2003_4390" x1="8.06251" y1="29.3442" x2="10.6392" y2="29.2462" gradientUnits="userSpaceOnUse">
<stop stop-color="#EFD4DB"/>
<stop offset="0.07" stop-color="#E8C2CC"/>
<stop offset="0.3" stop-color="#D68FA2"/>
<stop offset="0.51" stop-color="#C76781"/>
<stop offset="0.71" stop-color="#BD4A69"/>
<stop offset="0.88" stop-color="#B7395B"/>
<stop offset="1" stop-color="#B53356"/>
</linearGradient>
</defs>
</svg>
