<svg width="28" height="28" viewBox="0 0 28 28" fill="none" xmlns="http://www.w3.org/2000/svg">
<mask id="mask0_2003_3060" style="mask-type:alpha" maskUnits="userSpaceOnUse" x="0" y="0" width="28" height="28">
<rect width="28" height="28" fill="#D9D9D9"/>
</mask>
<g mask="url(#mask0_2003_3060)">
<path d="M14.0009 15.6333L8.28425 21.3499C8.07036 21.5638 7.79813 21.6708 7.46758 21.6708C7.13702 21.6708 6.8648 21.5638 6.65091 21.3499C6.43702 21.136 6.33008 20.8638 6.33008 20.5333C6.33008 20.2027 6.43702 19.9305 6.65091 19.7166L12.3676 13.9999L6.65091 8.28327C6.43702 8.06938 6.33008 7.79716 6.33008 7.4666C6.33008 7.13605 6.43702 6.86382 6.65091 6.64993C6.8648 6.43605 7.13702 6.3291 7.46758 6.3291C7.79813 6.3291 8.07036 6.43605 8.28425 6.64993L14.0009 12.3666L19.7176 6.64993C19.9315 6.43605 20.2037 6.3291 20.5342 6.3291C20.8648 6.3291 21.137 6.43605 21.3509 6.64993C21.5648 6.86382 21.6717 7.13605 21.6717 7.4666C21.6717 7.79716 21.5648 8.06938 21.3509 8.28327L15.6342 13.9999L21.3509 19.7166C21.5648 19.9305 21.6717 20.2027 21.6717 20.5333C21.6717 20.8638 21.5648 21.136 21.3509 21.3499C21.137 21.5638 20.8648 21.6708 20.5342 21.6708C20.2037 21.6708 19.9315 21.5638 19.7176 21.3499L14.0009 15.6333Z" fill="#2E2E2E"/>
</g>
</svg>
