<svg width="24" height="24" viewBox="0 0 24 24" fill="none" xmlns="http://www.w3.org/2000/svg">
<mask id="mask0_2003_3773" style="mask-type:alpha" maskUnits="userSpaceOnUse" x="0" y="0" width="24" height="24">
<rect x="24" y="24" width="24" height="24" transform="rotate(180 24 24)" fill="#D9D9D9"/>
</mask>
<g mask="url(#mask0_2003_3773)">
<path d="M12.0059 13.7629L16.473 9.26568C16.6401 9.09656 16.849 9.00815 17.0997 9.00046C17.3505 8.99277 17.567 9.08118 17.7493 9.26568C17.9164 9.43481 18 9.65006 18 9.91144C18 10.1728 17.9164 10.3881 17.7493 10.5572L12.6441 15.7232C12.4617 15.9077 12.249 16 12.0059 16C11.7628 16 11.5501 15.9077 11.3678 15.7232L6.26255 10.5572C6.09542 10.3881 6.00805 10.1767 6.00046 9.92297C5.99286 9.66928 6.08022 9.45018 6.26255 9.26568C6.42969 9.09656 6.64241 9.01199 6.90071 9.01199C7.15901 9.01199 7.37172 9.09656 7.53886 9.26568L12.0059 13.7629Z" fill="#2E2E2E"/>
</g>
</svg>
