<svg width="32" height="32" viewBox="0 0 32 32" fill="none" xmlns="http://www.w3.org/2000/svg">
<mask id="mask0_4179_10" style="mask-type:alpha" maskUnits="userSpaceOnUse" x="0" y="0" width="32" height="32">
<rect width="32" height="32" transform="matrix(-1 0 0 1 32 0)" fill="#D9D9D9"/>
</mask>
<g mask="url(#mask0_4179_10)">
<path d="M10.4327 17.3335H25.3327C25.7105 17.3335 26.0271 17.2057 26.2827 16.9501C26.5382 16.6946 26.666 16.3779 26.666 16.0001C26.666 15.6224 26.5382 15.3057 26.2827 15.0501C26.0271 14.7946 25.7105 14.6668 25.3327 14.6668H10.4327L16.966 8.13348C17.2327 7.86681 17.3605 7.5557 17.3493 7.20015C17.3382 6.84459 17.1993 6.53348 16.9327 6.26681C16.666 6.02237 16.3549 5.89459 15.9993 5.88348C15.6438 5.87237 15.3327 6.00015 15.066 6.26681L6.26601 15.0668C6.13268 15.2001 6.03824 15.3446 5.98268 15.5001C5.92713 15.6557 5.89935 15.8224 5.89935 16.0001C5.89935 16.1779 5.92713 16.3446 5.98268 16.5001C6.03824 16.6557 6.13268 16.8001 6.26601 16.9335L15.066 25.7335C15.3105 25.9779 15.616 26.1001 15.9827 26.1001C16.3493 26.1001 16.666 25.9779 16.9327 25.7335C17.1993 25.4668 17.3327 25.1501 17.3327 24.7835C17.3327 24.4168 17.1993 24.1001 16.9327 23.8335L10.4327 17.3335Z" fill="white"/>
</g>
</svg>
