<svg width="32" height="32" viewBox="0 0 32 32" fill="none" xmlns="http://www.w3.org/2000/svg">
<mask id="mask0_4002_8293" style="mask-type:alpha" maskUnits="userSpaceOnUse" x="0" y="0" width="32" height="32">
<rect width="32" height="32" fill="#D9D9D9"/>
</mask>
<g mask="url(#mask0_4002_8293)">
<path d="M21.5693 17.3335H6.66927C6.29149 17.3335 5.97483 17.2057 5.71927 16.9501C5.46372 16.6946 5.33594 16.3779 5.33594 16.0001C5.33594 15.6224 5.46372 15.3057 5.71927 15.0501C5.97483 14.7946 6.29149 14.6668 6.66927 14.6668L21.5693 14.6668L15.0359 8.13348C14.7693 7.86681 14.6415 7.5557 14.6526 7.20015C14.6637 6.84459 14.8026 6.53348 15.0693 6.26681C15.3359 6.02237 15.647 5.89459 16.0026 5.88348C16.3582 5.87237 16.6693 6.00015 16.9359 6.26681L25.7359 15.0668C25.8693 15.2001 25.9637 15.3446 26.0193 15.5001C26.0748 15.6557 26.1026 15.8224 26.1026 16.0001C26.1026 16.1779 26.0748 16.3446 26.0193 16.5001C25.9637 16.6557 25.8693 16.8001 25.7359 16.9335L16.9359 25.7335C16.6915 25.9779 16.3859 26.1001 16.0193 26.1001C15.6526 26.1001 15.3359 25.9779 15.0693 25.7335C14.8026 25.4668 14.6693 25.1501 14.6693 24.7835C14.6693 24.4168 14.8026 24.1001 15.0693 23.8335L21.5693 17.3335Z" fill="#63CA9F"/>
</g>
</svg>
