<svg width="32" height="32" viewBox="0 0 32 32" fill="none" xmlns="http://www.w3.org/2000/svg">
<g clip-path="url(#clip0_4196_8382)">
<circle cx="15.9992" cy="16.0002" r="8.8" fill="white"/>
<path d="M15.9984 2.4752L11.7104 0L9.3328 4.12H4.3456V9.2032L0 11.712L2.4752 16L0 20.2872L4.3456 22.7968V27.5208H9.1256L11.7104 32L15.9984 29.5248L20.2864 32L22.872 27.52H27.8016V22.712L32 20.2872L29.524 16L32 11.7128L27.8016 9.2888V4.1208H22.6664L20.2864 0L15.9984 2.4752ZM21.9304 11.4552L23.7336 13.2848L14.5896 22.4848L9.1216 16.9408L10.9168 15.1344L14.5864 18.7992L21.9304 11.4552Z" fill="#0095F6"/>
</g>
<defs>
<clipPath id="clip0_4196_8382">
<rect width="32" height="32" fill="white"/>
</clipPath>
</defs>
</svg>
